<svg width="13" height="13" viewBox="0 0 13 13" fill="none" xmlns="http://www.w3.org/2000/svg">
<path d="M2.34 0.885999C2.34 0.754 2.388 0.64 2.484 0.543999C2.58 0.447999 2.694 0.399999 2.826 0.399999H7.974C9.534 0.399999 10.752 0.759999 11.628 1.48C12.516 2.188 12.96 3.232 12.96 4.612C12.96 5.992 12.516 7.042 11.628 7.762C10.752 8.482 9.534 8.842 7.974 8.842H5.67V12.514C5.67 12.646 5.622 12.76 5.526 12.856C5.43 12.952 5.316 13 5.184 13H2.826C2.694 13 2.58 12.952 2.484 12.856C2.388 12.76 2.34 12.646 2.34 12.514V8.842H1.026C0.894 8.842 0.78 8.794 0.684 8.698C0.588 8.602 0.54 8.488 0.54 8.356V6.52C0.54 6.388 0.588 6.274 0.684 6.178C0.78 6.082 0.894 6.034 1.026 6.034H2.34V0.885999ZM7.884 6.034C8.412 6.034 8.832 5.92 9.144 5.692C9.468 5.452 9.63 5.092 9.63 4.612C9.63 4.132 9.468 3.778 9.144 3.55C8.832 3.31 8.412 3.19 7.884 3.19H5.67V6.034H7.884Z" fill="#414141"/>
</svg>
