<svg width="11" height="12" viewBox="0 0 11 12" fill="none" xmlns="http://www.w3.org/2000/svg">
<path d="M2.384 1.232C2.384 1.11467 2.42667 1.01333 2.512 0.927999C2.59733 0.842666 2.69867 0.799999 2.816 0.799999H6.848C7.95733 0.799999 8.87467 1.088 9.6 1.664C10.336 2.24 10.704 3.08267 10.704 4.192C10.704 4.93867 10.528 5.57333 10.176 6.096C9.83467 6.61867 9.37067 7.008 8.784 7.264C8.208 7.52 7.56267 7.648 6.848 7.648H3.904V8.448H7.376C7.48267 8.448 7.568 8.48 7.632 8.544C7.696 8.608 7.728 8.69333 7.728 8.8V9.536C7.728 9.64267 7.696 9.728 7.632 9.792C7.568 9.856 7.48267 9.888 7.376 9.888H3.904V11.568C3.904 11.6853 3.86133 11.7867 3.776 11.872C3.69067 11.9573 3.58933 12 3.472 12H2.816C2.69867 12 2.59733 11.9573 2.512 11.872C2.42667 11.7867 2.384 11.6853 2.384 11.568V9.888H1.136C1.02933 9.888 0.944 9.856 0.88 9.792C0.816 9.728 0.784 9.64267 0.784 9.536V8.8C0.784 8.69333 0.816 8.608 0.88 8.544C0.944 8.48 1.02933 8.448 1.136 8.448H2.384V7.648H1.136C1.02933 7.648 0.944 7.616 0.88 7.552C0.816 7.488 0.784 7.40267 0.784 7.296V6.56C0.784 6.45333 0.816 6.368 0.88 6.304C0.944 6.24 1.02933 6.208 1.136 6.208H2.384V1.232ZM6.768 6.208C7.54667 6.208 8.144 6.04267 8.56 5.712C8.976 5.37067 9.184 4.864 9.184 4.192C9.184 2.89067 8.37867 2.24 6.768 2.24H3.904V6.208H6.768Z" fill="#606060"/>
</svg>
